<?xml version="1.0" encoding="utf-8"?>
<!-- Generator: Adobe Illustrator 15.1.0, SVG Export Plug-In . SVG Version: 6.00 Build 0)  -->
<!DOCTYPE svg PUBLIC "-//W3C//DTD SVG 1.1//EN" "http://www.w3.org/Graphics/SVG/1.1/DTD/svg11.dtd">
<svg version="1.1" id="Layer_1" xmlns="http://www.w3.org/2000/svg" xmlns:xlink="http://www.w3.org/1999/xlink" x="0px" y="0px"
	 width="252px" height="252px" viewBox="0 0 252 252" enable-background="new 0 0 252 252" xml:space="preserve">
<path fill="#231F20" d="M126.338,239.25l102.986-54.757V23.53c0-5.99-4.858-10.847-10.848-10.847H33.523
	c-5.99,0-10.848,4.857-10.848,10.848v161.6l101.927,54.196h1.77l-0.034-0.065V239.25z"/>
<path fill="#7FD3E0" d="M47.56,45.08v6.167h-3.95v-20.96c3.26,0,6.614-0.032,9.878-0.032c10.304,0,10.332,14.73,0,14.82h-5.92
	L47.56,45.08L47.56,45.08z M47.56,41.457h5.93c5.06,0,5.034-7.426,0-7.426h-5.922v7.43H47.56V41.457z M97.055,51.244h-4.52
	l-6.08-7.003h-4.01v7.01h-3.95V30.26c3.32,0,6.644,0.03,9.967,0.03c4.94,0.03,7.544,3.322,7.544,6.945
	c0,2.874-1.318,5.778-5.298,6.588l6.346,7.153L97.055,51.244L97.055,51.244z M82.447,33.974v6.707h6.016
	c2.516,0,3.594-1.67,3.594-3.35c0-1.68-1.11-3.35-3.594-3.35h-6.016V33.974z M167.934,51.244h-15.689V30.29h15.689v3.834H156.17
	v4.818h11.344v3.68h-11.35v4.728h11.766v3.893L167.934,51.244L167.934,51.244z M204.434,36.069l-6.822,9.09h-0.771l-6.673-9.13
	v15.24h-3.953V30.31h4.551l6.56,9.015l6.557-9.01h4.521v20.96h-3.955V36.07L204.434,36.069z M134.029,38.389
	c-1.07-4.57-1.61-8.52-10.85-8.52c-9.61,0-9.15,2.86-10.72,7.43c0.61,1.872,0.42,4.043-0.58,5.73c0.1,0.81,0.25,1.614,0.5,2.38
	c4.11,0.047,6.1,2.09,5.98,5.3c0.06,0.024,0.13,0.044,0.21,0.07l-0.24,0.423l0.806,0.452l0.09-0.164l0.49,0.334l0.377-0.58
	c0.153,0.037,0.31,0.082,0.47,0.11L120.4,51.57l0.73,0.6l0.5-0.67c0.218,0.024,0.444,0.034,0.67,0.046l-0.21,0.236l0.698,0.67
	l0.654-0.75l-0.14-0.137c0.163,0,0.312-0.02,0.468-0.023l-0.18,0.177l0.657,0.753l0.693-0.678l-0.27-0.308
	c0.21-0.027,0.415-0.07,0.623-0.1l0.596,0.8l0.732-0.607l-0.308-0.41c0.162-0.044,0.32-0.09,0.478-0.14l0.51,0.797l0.49-0.336
	l0.09,0.166l0.811-0.45l-0.405-0.73c0.032-0.01,0.069-0.02,0.103-0.037c-0.164-3.1,1.65-5.055,5.432-5.38
	c0.175-0.605,0.307-1.223,0.396-1.844c-0.627-1.51-0.694-3.265-0.2-4.83v0.007v-0.02L134.029,38.389z M116.509,44.149l-1.39-0.41
	l-0.38-2.44l1.26-1.45l1.99-0.157l3.704,2.754l-2.16,2.216h-1.12l-1.89-0.515h-0.018L116.509,44.149z M123.6,49l-0.48-2.08
	L122.605,49l-1.275-1.553l0.445-1.4l0.822-1.69l1.093,1.12l1.248,2.362L123.62,49v0.01l-0.017-0.006L123.6,49z M131.355,43.73
	l-1.393,0.414l-1.89,0.524h-1.11l-2.16-2.215L128.5,39.7l1.98,0.155l1.256,1.445l-0.379,2.44l0.01-0.01l-0.01,0.002L131.355,43.73z"
	/>
<g>
	<path fill="#7FD3E0" d="M195.521,152.256c-0.978-0.958-1.881-1.974-2.709-3.043c-0.83-1.066-1.223-2.764-1.181-5.09
		c1.894-0.557,4.011,0.052,6.351,1.822c-0.814-1.5-1.979-2.856-3.488-4.077c-1.516-1.218-2.986-1.67-4.424-1.356
		c-0.309,0.055-0.659-0.039-1.029-0.283c-0.37-0.239-0.57-0.529-0.63-0.869c-0.13-0.84,0.17-1.311,0.89-1.43
		c1.29-0.211,2.721,0.1,4.297,0.92c1.573,0.819,2.938,1.996,4.086,3.524c-0.813-2.53-2.041-5.08-3.689-7.647
		c-1.645-2.567-3.516-4.765-5.613-6.57c-1.05,2.222-2.033,4.572-2.963,7.029c-0.92,2.461-1.637,4.98-2.143,7.551
		c0.256,0.56,0.474,1.102,0.636,1.635c0.17,0.529,0.308,1.13,0.416,1.8c0.174,1.082,0.218,2.261,0.127,3.515
		c-0.091,1.256-0.044,2.431,0.13,3.517c0.143,0.923,0.466,1.771,0.956,2.55c0.495,0.778,1.292,0.994,2.394,0.646
		c0.95,0.279,1.45,0.84,1.5,1.689c-0.85,1.934-1.836,3.337-2.977,4.204c-1.141,0.87-2.434,1.417-3.885,1.646
		c-0.405,3.158-0.949,6.201-1.639,9.144c-0.23,0.983-0.5,1.96-0.754,2.94v5.774c0.135-0.014,0.271-0.021,0.4-0.037
		c3.877-10.395,8.87-20.239,14.98-29.54l-0.024,0.021L195.521,152.256z M195.145,110.106c2.188-2.836,4-5.312,5.438-7.43
		c1.438-2.115,1.962-4.386,1.571-6.815c-0.277-1.75-1.155-3.35-2.619-4.79c-1.465-1.442-3.453-1.96-5.939-1.56
		c-1.609,0.254-2.957,1.13-4.041,2.63c-1.08,1.5-1.523,3.39-1.326,5.678c0.037,0.76-0.01,1.627-0.146,2.595
		c-0.134,0.967-0.597,1.554-1.388,1.763c-0.311,0.136-0.692-0.062-1.147-0.593c-0.455-0.53-0.71-0.96-0.765-1.295
		c-0.133-0.837,0.189-1.64,0.979-2.41s1.069-1.604,0.85-2.512c-0.254-1.073-0.19-2.072,0.209-2.99
		c0.391-0.92,0.923-1.715,1.601-2.378c0.681-0.665,1.472-1.22,2.396-1.67c0.916-0.446,1.779-0.73,2.586-0.86
		c3.455-0.553,6.022,0.18,7.703,2.183c1.681,2.007,2.694,4.14,3.055,6.4c0.316,2.007-0.146,4.29-1.389,6.848
		c-1.25,2.56-2.823,5.36-4.729,8.41c3.67,1.51,7.021,3.59,10.069,6.22V67.96h-27.979v39.896c0.902-0.008,1.81-0.007,2.71,0.022
		c4.27,0.135,8.364,0.875,12.29,2.224l0.021,0.003L195.145,110.106z M196.551,134.979c1.93,3.554,3.211,7.039,3.83,10.457
		c0.75-0.978,1.52-1.961,2.32-2.942c0.79-0.983,1.564-1.966,2.316-2.944c-1.146-4.109-2.819-7.77-5.017-10.98
		c-2.2-3.209-4.714-5.919-7.538-8.139l-1.529,2.81l-1.533,2.81c2.85,2.381,5.24,5.346,7.16,8.9v0.02L196.551,134.979z
		 M185.961,126.281c-1.96-1.24-3.9-2-5.811-2.3v13.839c0.74,0.815,1.418,1.701,2.011,2.681c1-5.647,2.271-10.385,3.807-14.21
		L185.961,126.281z M200.82,148.971c0.408,5.17-0.439,9.94-2.551,14.311c-2.11,4.369-5.408,8.539-9.891,12.517l-1.426-0.416
		c2.847-2.847,5.26-5.85,7.23-8.993c1.979-3.148,3.336-6.537,4.078-10.171c-0.308-0.897-0.671-1.61-1.074-2.14
		c-3.026,4.263-5.775,8.665-8.225,13.212c-2.449,4.556-4.484,9.272-6.105,14.164l0.605-0.09c4.17-0.75,7.805-2.423,10.896-5.017
		c3.09-2.597,5.596-5.68,7.502-9.24c1.906-3.565,3.224-7.379,3.939-11.439c0.721-4.061,0.782-7.93,0.2-11.611l-0.239-1.511
		l-2.461,3.224c-0.816,1.078-1.64,2.15-2.457,3.227l-0.014-0.02L200.82,148.971z M180.15,163.751v1.13
		c0.049-0.35,0.105-0.699,0.147-1.052c-0.053-0.021-0.096-0.054-0.146-0.077L180.15,163.751z M181.486,122.206
		c1.889,0.47,3.65,1.177,5.285,2.116c0.496-1.022,0.957-2.02,1.381-2.986c0.42-0.97,0.896-1.88,1.42-2.738
		c-3.086-1.88-6.23-3.14-9.42-3.79v7.135c0.447,0.067,0.89,0.15,1.334,0.26V122.206z M141.561,88.996
		c2.619,0.485,5.1,1.4,7.439,2.74c2.343,1.344,4.38,3.08,6.109,5.204c1.732,2.13,2.791,4.663,3.17,7.603
		c0.145,1.44,0.091,2.883-0.172,4.34c-0.262,1.458-0.479,2.93-0.659,4.416c1.87-1.13,3.831-2.07,5.887-2.827v-42.5h-27.989v20.71
		c1.949-0.188,4.02-0.1,6.219,0.307h-0.01L141.561,88.996z M163.324,145.934v-8.298c-1.15,0.362-2.246,0.851-3.27,1.495
		c1.27,2.27,2.355,4.528,3.27,6.807v-0.006V145.934z M157.523,118.493c-3.453,1.626-6.354,3.868-8.705,6.73
		c1.714,1.427,3.301,3,4.771,4.708c1.46,1.709,2.793,3.449,3.979,5.223c1.57-1.03,3.23-1.807,4.988-2.34
		c-0.295-0.381-0.613-0.771-0.951-1.185c-0.34-0.418-0.705-0.84-1.088-1.284l0.687-0.109c0.446,0.343,0.897,0.723,1.354,1.109
		c0.275,0.234,0.516,0.461,0.766,0.688v-15.69c-2.174,0.633-4.11,1.347-5.801,2.143V118.493z M153.55,160.5
		c-0.413-2.59-1.399-5.438-2.963-8.534c-0.97,3.243-1.239,6.204-0.815,8.88c0.399,2.51,1.047,4.771,1.939,6.771
		c0.895,2.004,2,3.758,3.311,5.26c-0.172-2.112-0.381-4.202-0.623-6.271c-0.25-2.06-0.525-4.096-0.846-6.104L153.55,160.5z
		 M136.54,199.883c-0.3-1.89-0.705-3.64-1.203-5.27v14.376l0.7-0.37c0.046-0.176,0.1-0.334,0.145-0.51
		c0.66-2.891,0.776-5.633,0.37-8.23L136.54,199.883L136.54,199.883z M138.8,193.859c-0.68-4.598-1.835-8.654-3.463-12.17v7.953
		c1.397,2.801,2.396,6.073,2.993,9.824c0.355,2.26,0.395,4.44,0.109,6.545c-0.072,0.49-0.154,0.971-0.244,1.45l0.369-0.2
		c0.346-1.437,0.543-2.92,0.59-4.46c0.099-3.274-0.027-6.257-0.369-8.95h0.015V193.859z"/>
	<path fill="#7FD3E0" d="M140.564,100.918c2.074,0.872,3.299,2.477,3.67,4.82c0.136,0.838-0.041,1.68-0.524,2.528
		c-0.483,0.85-0.694,1.742-0.628,2.674c0.04,0.766,0.344,1.255,0.914,1.462c0.57,0.21,1.047,0.5,1.436,0.866
		c-1.091,0.17-2.031,0.026-2.82-0.443c-0.782-0.47-1.243-1.076-1.36-1.827c-0.149-0.994,0.056-1.898,0.624-2.71
		c0.57-0.815,0.75-1.628,0.54-2.45c-0.324-1.565-1.254-2.605-2.782-3.128c-1.527-0.52-2.93-0.678-4.22-0.47
		c-0.021,0.003-0.037,0.01-0.063,0.018v15.268c1.041,0.374,2.061,0.772,3.055,1.224c2.937,1.334,5.621,2.923,8.054,4.764
		c2.43-3.39,5.323-6.21,8.678-8.46c0.32-1.677,0.671-3.324,1.078-4.933c0.41-1.6,0.521-3.25,0.337-4.94
		c-0.253-2.1-0.85-3.94-1.779-5.5c-0.936-1.563-2.088-2.923-3.446-4.08l0.079,0.5c0.347,0.63,0.676,1.265,0.98,1.9
		c0.309,0.64,0.53,1.375,0.66,2.21c0.13,0.837,0.08,1.79-0.165,2.858l-1.349-0.687c0.344-0.48,0.441-1.14,0.311-1.98
		c-0.08-0.505-0.199-0.994-0.354-1.473c-0.16-0.48-0.351-0.888-0.563-1.22c-0.173,0.485-0.435,0.914-0.786,1.29
		c-0.354,0.38-0.705,0.73-1.066,1.066c-0.949-2.364-2.424-3.824-4.403-4.375c-0.58-1.554-0.61-2.805-0.101-3.76
		c-3.045-1.03-6.109-1.42-9.189-1.18v9.31c1.609-0.215,3.357,0.06,5.23,0.844l-0.03,0.025L140.564,100.918z M140.484,192.814
		c0.717,4.002,0.731,8.117,0.039,12.348c-0.063,0.4-0.151,0.797-0.232,1.188l1.47-0.768c0.31-0.77,0.591-1.546,0.83-2.342
		c1.49-4.907,1.771-10.594,0.828-17.051c-0.569-3.596-1.521-7.22-2.84-10.867c-1.32-3.65-3.056-7.022-5.187-10.114
		c-0.011-0.01-0.022-0.021-0.031-0.022v12.42c2.416,4.199,4.141,9.267,5.15,15.227l-0.02-0.018H140.484z M155.417,179.366
		c-2.125-1.978-3.974-4.405-5.543-7.287c-1.572-2.89-2.685-6.38-3.332-10.479c-0.717-4.521-0.213-9.148,1.508-13.881
		c-1.713-2.47-3.69-4.818-5.937-7.029c-2.117-2.08-4.381-3.92-6.78-5.541v9.211c0.69,0.481,1.435,0.959,2.271,1.422
		c1.082,0.6,1.66,1.365,1.724,2.298c0.012,1.114-0.212,2.31-0.667,3.583c-0.46,1.273-0.917,2.54-1.374,3.814
		c2.796,3.59,5.297,7.414,7.51,11.479s3.81,8.68,4.795,13.84c1.011,5.325,1.17,10.09,0.47,14.272c-0.41,2.507-1.01,4.83-1.75,6.998
		l4.15-2.199c0.91-2.585,1.57-5.206,2-7.874c0.66-4.14,0.98-8.353,0.96-12.638v0.012L155.417,179.366z"/>
	<path fill="#7FD3E0" d="M147.115,180.818c-0.715-5.034-2.305-9.586-4.764-13.652c-2.066-3.422-4.416-6.777-7.02-10.083v4.7
		c0.587,0.724,1.156,1.465,1.697,2.232l0.66,1.049c4.025,6.138,6.5,12.646,7.431,19.533c0.808,6.131,0.481,12.15-0.974,18.045
		c-0.164,0.649-0.35,1.293-0.545,1.934l1.899-1.012c1-2.668,1.71-5.615,2.09-8.877c0.457-3.888,0.3-8.522-0.47-13.891v0.02
		L147.115,180.818z M117.075,102.925c-1.338,1.97-2.362,4.604-3.078,7.89l-0.122,0.02c-0.176,0.972-0.246,1.84-0.205,2.607
		c-0.03,0.352-0.036,0.696-0.02,1.04c0.012,0.342,0.05,0.722,0.117,1.138l0.242-0.036c1.2-0.19,2.4-0.335,3.59-0.434v-12.9
		c-0.19,0.216-0.36,0.452-0.53,0.687v-0.012H117.075z M112.293,198.723c-2.158,1.201-4.323,1.977-6.495,2.322
		c-3.632,0.493-7.05,0.268-10.25-0.684c-0.323-0.09-0.628-0.211-0.944-0.32l22.19,11.8c0.26-0.11,0.528-0.22,0.806-0.31v-17.09
		c-1.546,1.74-3.31,3.18-5.307,4.289v-0.004V198.723z M111.496,116.104l-0.28-1.758c-0.437-2.76-0.158-5.55,0.838-8.37
		c0.994-2.816,2.543-5.402,4.645-7.753c0.28-0.32,0.59-0.615,0.9-0.922V67.97H89.61v57.38c2.292-1.497,4.74-2.975,7.37-4.423
		c3.827-2.107,8.665-3.716,14.51-4.818l0.003-0.01L111.496,116.104z"/>
	<path fill="#7FD3E0" d="M94.057,176.148c-0.03,0.861-0.01,1.502,0.058,1.92c0.207,1.34,1.002,2.565,2.37,3.676
		c1.363,1.111,2.494,1.6,3.38,1.456c1.12-0.183,2.44-0.063,3.95,0.334c1.5,0.407,2.34,1.157,2.512,2.241
		c0.092,0.588,0.036,1.267-0.172,2.024c-0.208,0.761-0.795,1.22-1.762,1.375c0.252-0.47,0.364-0.932,0.334-1.401
		c-0.036-0.461-0.082-0.904-0.15-1.33c-0.08-0.495-0.52-0.658-1.315-0.495c-0.8,0.17-1.48,0.307-2.042,0.396
		c-1.128,0.184-2.21-0.01-3.245-0.578c-1.04-0.56-1.96-1.312-2.772-2.26c-0.812-0.939-1.492-1.988-2.044-3.146
		c-0.55-1.153-0.92-2.277-1.09-3.365l-0.08-0.502c-0.81,0.162-1.6,0.342-2.4,0.525v17.459c1.83,1.478,3.88,2.652,6.165,3.48
		c2.712,0.984,5.637,1.223,8.773,0.723c1.69-0.271,3.525-0.9,5.514-1.91c-0.388-0.36-0.736-0.74-1.043-1.121
		c-0.308-0.379-0.5-0.819-0.58-1.319c-0.2-1.261-0.156-2.399,0.133-3.431c0.29-1.029,0.518-2.08,0.68-3.129
		c3.13,3.1,5.125,4.239,5.984,3.42c0.07-0.61,0.096-1.221,0.083-1.82c-0.015-0.6-0.065-1.19-0.16-1.777
		c-0.12-0.75-0.613-1.143-1.483-1.173c-0.87-0.034-1.388-0.55-1.546-1.56c-0.065-0.418,0.02-0.797,0.254-1.133
		c0.235-0.338,0.55-0.545,0.955-0.606c0.723-0.11,1.356,0.237,1.9,1.05c0.543,0.813,0.88,1.646,1.012,2.479
		c0.268,1.68,0.286,3.347,0.056,5.016c0.48-0.618,0.9-1.295,1.29-1.997v-12.42c-3.49-1.149-7.126-1.761-10.918-1.81
		c-4.466-0.061-8.675,0.18-12.628,0.723l0.02-0.016L94.057,176.148z M103.379,160.059c-4.71-0.69-9.29-1.021-13.77-1.026v15.686
		c0.76-0.146,1.523-0.292,2.29-0.415c0.144-2.767,1.157-5.072,3.046-6.918c1.9-1.848,4.33-3.005,7.304-3.479
		c3.22-0.515,5.994-0.46,8.317,0.153c2.326,0.617,4.296,1.569,5.896,2.855c0.398,0.32,0.778,0.656,1.14,1.007v-3.58
		c-4.394-2.1-9.13-3.53-14.22-4.28h-0.01L103.379,160.059z M93.219,143.598c-0.44-2.248-0.29-4.16,0.45-5.738
		c0.74-1.573,2.312-2.555,4.73-2.939c1.2-0.189,2.4-0.063,3.582,0.393c1.184,0.457,2.386,0.631,3.607,0.521
		c0.482-0.069,0.804-0.252,0.964-0.532c0.154-0.279,0.27-0.619,0.326-1.02c0.056-0.391,0.128-0.721,0.21-0.99s0.28-0.42,0.605-0.48
		c0.643-0.1,1.25-0.021,1.827,0.221c0.57,0.246,0.905,0.66,0.995,1.24c0.1,1.166-0.31,2.08-1.236,2.729
		c-0.93,0.66-1.824,1.094-2.696,1.319c-1.515,0.326-2.808,0.107-3.877-0.649c-1.073-0.76-2.207-1.04-3.416-0.851
		c-1.77,0.281-2.85,1.111-3.252,2.486c-0.4,1.377-0.496,2.719-0.286,4.039c0.23,1.426,0.618,2.586,1.17,3.483
		c0.557,0.899,1.21,1.628,1.96,2.198c0.47-0.163,0.946-0.28,1.43-0.357l1.33-0.214c5.855-0.94,11.17-0.66,15.937,0.806v-14.529
		c-1.186-1.822-2.34-3.695-3.434-5.67l-0.606,0.097c-3.377,0.54-6.594,1.31-9.65,2.312c-3.057,1-6.144,2.07-9.26,3.211
		c-1.655,0.6-3.335,1.209-5.035,1.81v16.569c2.158-1.305,4.43-2.365,6.837-3.162c-1.65-1.541-2.72-3.641-3.23-6.309h0.027
		L93.219,143.598z"/>
	<path fill="#7FD3E0" d="M117.6,161.77v-5.52c-0.642-0.164-1.28-0.327-1.914-0.468c-3.25-0.726-6.314-1.332-9.194-1.818
		c-2.88-0.483-5.357-1.29-7.432-2.417c-1.753,0.364-3.49,1.004-5.198,1.922c-1.482,0.79-2.893,1.73-4.24,2.801v0.5
		c5.235-0.061,10.514,0.379,15.856,1.299c4.284,0.74,8.325,1.98,12.13,3.721L117.6,161.77L117.6,161.77z M113.55,167.639
		c-2.717-2.313-6.21-3.129-10.47-2.451c-1.84,0.381-3.568,1.428-5.192,3.146c-1.625,1.716-2.772,3.573-3.446,5.566
		c3.807-0.435,7.87-0.547,12.192-0.336c3.805,0.188,7.458,0.817,10.965,1.888v-2.938c-1.01-1.8-2.35-3.427-4.06-4.88L113.55,167.639
		L113.55,167.639z M103.562,151.083c1.542,0.356,3.236,0.646,5.085,0.864c1.848,0.22,3.858,0.542,6.028,0.97
		c0.943,0.185,1.92,0.417,2.923,0.683v-1.406c-4.136-1.237-8.81-1.607-14.035-1.103L103.562,151.083z M48.565,146.273
		c2.045,0.146,3.97,0.586,5.778,1.332c1.806,0.74,3.387,1.861,4.738,3.359c1.36,1.502,2.23,3.51,2.63,6.018l0.08,0.498
		c1.92,0.117,3.827,0.199,5.73,0.244c1.44,0.026,2.9,0.018,4.37,0v-0.463c-1.49-0.522-2.86-1.236-4.103-2.15
		c-1.634-1.199-2.582-2.639-2.85-4.313c-0.13-0.85-0.08-1.81,0.158-2.92c0.235-1.12,0.756-1.74,1.56-1.87
		c0.24-0.038,0.593-0.038,1.057,0.025c0.46,0.055,0.74,0.37,0.84,0.96c0.108,0.67-0.235,1.21-1.04,1.645
		c-0.795,0.426-1.12,1.104-0.976,2.017c0.1,0.59,0.31,1.11,0.625,1.573c0.4-0.062,0.806-0.106,1.22-0.129
		c0.41-0.021,0.916,0.049,1.52,0.209c0.725,0.271,1.394,0.66,2.017,1.16v-12.326c-1.336,0.131-2.71,0.18-4.135,0.125
		c-2.41-0.084-4.705-0.535-6.895-1.35c-2.19-0.806-4.07-2.005-5.643-3.6c-1.573-1.596-2.564-3.69-2.97-6.283
		c-0.333-2.088,0.127-4.268,1.375-6.524c1.25-2.26,3.61-3.627,7.08-4.097c2.02-0.245,4.123-0.237,6.31,0.02
		c1.68,0.206,3.307,0.2,4.88,0.01V67.97h-28v78.375c1.466-0.16,3.02-0.189,4.66-0.072l0.003-0.002L48.565,146.273z"/>
	<path fill="#7FD3E0" d="M59.152,157.26l-0.1-0.625c-0.2-1.255-0.846-2.46-1.934-3.615c-1.092-1.16-2.385-2.181-3.885-3.051
		c-1.5-0.869-3.086-1.529-4.76-1.949c-1.632-0.41-3.156-0.506-4.57-0.297v6.1c1.094,0.41,2.21,0.8,3.384,1.14
		c3.715,1.08,7.67,1.843,11.865,2.29V157.26z M65.06,125.113c-2.03-0.32-3.977-0.373-5.84-0.162c-1.62,0.18-2.925,0.79-3.91,1.85
		c-0.988,1.061-1.348,2.17-1.08,3.33c0.317,1.49,0.93,2.747,1.832,3.76c0.904,1.018,1.957,1.811,3.164,2.391
		c1.204,0.58,2.477,0.939,3.817,1.07c1.337,0.129,2.57,0.104,3.7-0.076c1.826-0.289,3.535-0.707,5.143-1.233v-11.08
		c-0.326,0.064-0.65,0.137-1.004,0.19c-1.853,0.29-3.792,0.28-5.822-0.045v0.013V125.113z M61.56,159.966
		c-0.365,1.345-1.092,2.47-2.188,3.37c-1.092,0.905-2.205,1.686-3.338,2.337c-1.133,0.66-2.125,1.156-2.978,1.511
		c-0.85,0.352-1.257,0.649-1.218,0.901c0.02,0.606,0.308,1.113,0.868,1.536c0.56,0.43,1.05,0.87,1.447,1.33
		c-2.91,0.38-4.51-0.352-4.8-2.195c-0.145-0.914,0.188-1.684,1.003-2.279c0.813-0.597,1.77-1.201,2.865-1.811
		c1.11-0.6,2.2-1.262,3.28-2c1.078-0.73,1.855-1.684,2.33-2.875c-5.62-0.557-10.573-1.641-14.9-3.221v16.541l16.36,8.695
		c1.616-0.076,3.177-0.234,4.68-0.479c1.93-0.306,3.827-0.693,5.69-1.16c0.42-0.103,0.83-0.22,1.25-0.33v-19.728
		c-0.57,0.021-1.14,0.039-1.7,0.048c-3.002,0.056-5.87-0.007-8.62-0.171l-0.022-0.012L61.56,159.966z M65.343,183.813
		c-0.335,0.054-0.678,0.084-1.015,0.131l7.558,4.015v-5.624c-0.288,0.083-0.578,0.173-0.864,0.252
		C69.165,183.1,67.272,183.506,65.343,183.813L65.343,183.813z"/>
</g>
</svg>
